# xmcd
#
# Track frame offsets:
#	150
#	14015
#	28567
#	45914
#	62474
#	78417
#	95736
#	112198
#	125609
#	138876
#	155726
#	170320
#	181592
#	197994
#	217470
#	231979
#
# Disc length: 3259 seconds
#
# Revision: 1
# Processed by: cddbd v1.5.1PL0 Copyright (c) Steve Scherf et al.
# Submitted via: audiograbber 1.82.01
#
DISCID=e20cb910
DTITLE=Gunter Gabriel - Glasklare Songs
DYEAR=1900
DGENRE=Country
TTITLE0=Scheiben-Doktor-Song
TTITLE1=Hey Yvonne
TTITLE2=Ich bin CB-Funker
TTITLE3=6 Dinge braucht der Mann
TTITLE4=Komm unter meine Decke
TTITLE5=Wahre Liebe gibts nur unter Männern
TTITLE6=Willi Klein, der Fernsehmann
TTITLE7=Papa trinkt Bier
TTITLE8=Hey Boss, ich brauch mehr Geld
TTITLE9=Wir sind die, an denen alles hängen bleibt
TTITLE10=30 Tonner Diesel
TTITLE11=Big River
TTITLE12=Mit dem Hammer in der Hand
TTITLE13=Intercity Linie Nr. 4
TTITLE14=Deutschland ist ...
TTITLE15=Warum ich so auf Deutschland steh'
EXTD=
EXTT0=
EXTT1=
EXTT2=
EXTT3=
EXTT4=
EXTT5=
EXTT6=
EXTT7=
EXTT8=
EXTT9=
EXTT10=
EXTT11=
EXTT12=
EXTT13=
EXTT14=
EXTT15=
PLAYORDER=
